# xmcd
#
# Track frame offsets:
#	150
#	17812
#	36349
#	57707
#	75333
#	97283
#	106018
#	122329
#	142060
#	157793
#	168783
#	186842
#	202338
#
# Disc length: 2978 seconds
#
# Revision: 1
# Processed by: cddbd v1.5.2PL0 Copyright (c) Steve Scherf et al.
# Submitted via: audiograbber 1.83.01
#
DISCID=ad0ba00d
DTITLE=The Most Fabulous Long Gone Dicks - The Most Fabulous Long Gone Dicks
DYEAR=2010
DGENRE=Blues Rock
TTITLE0=I'm a hog for you
TTITLE1=Hold on to my love
TTITLE2=Walk on
TTITLE3=I can see clearly now
TTITLE4=Louie Louie
TTITLE5=(You ain't nothing but) Fine
TTITLE6=105
TTITLE7=16 Tons #2
TTITLE8=Mean Love
TTITLE9=I'm on Fire
TTITLE10=Superstition
TTITLE11=Automatic
TTITLE12=Beautieful Mistake
EXTD=
EXTT0=
EXTT1=
EXTT2=
EXTT3=
EXTT4=
EXTT5=
EXTT6=
EXTT7=
EXTT8=
EXTT9=
EXTT10=
EXTT11=
EXTT12=
PLAYORDER=
